<svg xmlns="http://www.w3.org/2000/svg" viewBox="0 0 1400 700" fill="none">
  <rect width="1400" height="700" fill="#111113"/>
  <rect x="60" y="50" width="1280" height="600" rx="12" fill="#18181B" stroke="#27272A"/>
  <rect x="90" y="80" width="200" height="14" rx="3" fill="#EDEDEF" opacity="0.8"/>
  <rect x="90" y="130" width="380" height="480" rx="8" fill="#111113" stroke="#27272A"/>
  <rect x="110" y="155" width="120" height="8" rx="2" fill="#6B7FE8"/>
  <rect x="110" y="180" width="320" height="1" fill="#27272A"/>
  <rect x="110" y="200" width="140" height="32" rx="6" fill="#18181B" stroke="#6B7FE8" stroke-width="1"/>
  <rect x="120" y="212" width="100" height="8" rx="2" fill="#EDEDEF" opacity="0.7"/>
  <rect x="110" y="248" width="140" height="32" rx="6" fill="#18181B" stroke="#27272A"/>
  <rect x="120" y="260" width="90" height="8" rx="2" fill="#71717A"/>
  <rect x="110" y="296" width="140" height="32" rx="6" fill="#18181B" stroke="#27272A"/>
  <rect x="120" y="308" width="110" height="8" rx="2" fill="#71717A"/>
  <rect x="110" y="344" width="140" height="32" rx="6" fill="#18181B" stroke="#27272A"/>
  <rect x="120" y="356" width="80" height="8" rx="2" fill="#71717A"/>
  <rect x="500" y="130" width="800" height="480" rx="8" fill="#111113" stroke="#27272A"/>
  <rect x="530" y="160" width="180" height="12" rx="3" fill="#EDEDEF" opacity="0.7"/>
  <rect x="530" y="200" width="740" height="60" rx="6" fill="#18181B" stroke="#27272A"/>
  <rect x="550" y="220" width="200" height="8" rx="2" fill="#71717A"/>
  <rect x="550" y="238" width="400" height="8" rx="2" fill="#3F3F46"/>
  <rect x="530" y="280" width="740" height="60" rx="6" fill="#18181B" stroke="#27272A"/>
  <rect x="550" y="300" width="180" height="8" rx="2" fill="#71717A"/>
  <rect x="550" y="318" width="350" height="8" rx="2" fill="#3F3F46"/>
  <rect x="530" y="360" width="740" height="60" rx="6" fill="#18181B" stroke="#27272A"/>
  <rect x="550" y="380" width="160" height="8" rx="2" fill="#71717A"/>
  <rect x="550" y="398" width="300" height="8" rx="2" fill="#3F3F46"/>
  <rect x="530" y="440" width="740" height="60" rx="6" fill="#18181B" stroke="#27272A"/>
  <rect x="550" y="460" width="200" height="8" rx="2" fill="#71717A"/>
  <rect x="550" y="478" width="380" height="8" rx="2" fill="#3F3F46"/>
</svg>
