<svg xmlns="http://www.w3.org/2000/svg" viewBox="0 0 1400 700" fill="none">
  <rect width="1400" height="700" fill="#111113"/>
  <rect x="60" y="40" width="1280" height="620" rx="12" fill="#18181B" stroke="#27272A"/>
  <rect x="90" y="70" width="200" height="14" rx="3" fill="#EDEDEF" opacity="0.85"/>
  <rect x="90" y="100" width="60" height="24" rx="12" fill="#EAB308" opacity="0.15"/>
  <rect x="100" y="108" width="40" height="8" rx="2" fill="#EAB308"/>
  <rect x="160" y="100" width="80" height="24" rx="12" fill="#22C55E" opacity="0.15"/>
  <rect x="170" y="108" width="55" height="8" rx="2" fill="#22C55E"/>
  <rect x="260" y="100" width="70" height="24" rx="12" fill="#27272A"/>
  <rect x="270" y="108" width="45" height="8" rx="2" fill="#71717A"/>
  <rect x="90" y="150" width="1220" height="480" rx="8" fill="#111113" stroke="#27272A"/>
  <rect x="110" y="170" width="200" height="8" rx="2" fill="#71717A"/>
  <rect x="500" y="170" width="120" height="8" rx="2" fill="#71717A"/>
  <rect x="900" y="170" width="100" height="8" rx="2" fill="#71717A"/>
  <rect x="1100" y="170" width="80" height="8" rx="2" fill="#71717A"/>
  <rect x="110" y="195" width="1180" height="1" fill="#27272A"/>
  <rect x="110" y="215" width="250" height="8" rx="2" fill="#EDEDEF" opacity="0.7"/>
  <rect x="500" y="215" width="80" height="8" rx="2" fill="#71717A"/>
  <rect x="900" y="215" width="60" height="8" rx="2" fill="#22C55E"/>
  <rect x="1100" y="212" width="70" height="14" rx="7" fill="#22C55E" opacity="0.15"/>
  <rect x="110" y="255" width="1180" height="1" fill="#27272A"/>
  <rect x="110" y="275" width="280" height="8" rx="2" fill="#EDEDEF" opacity="0.7"/>
  <rect x="500" y="275" width="80" height="8" rx="2" fill="#71717A"/>
  <rect x="900" y="275" width="60" height="8" rx="2" fill="#EAB308"/>
  <rect x="1100" y="272" width="80" height="14" rx="7" fill="#EAB308" opacity="0.15"/>
  <rect x="110" y="315" width="1180" height="1" fill="#27272A"/>
  <rect x="110" y="335" width="220" height="8" rx="2" fill="#EDEDEF" opacity="0.7"/>
  <rect x="500" y="335" width="80" height="8" rx="2" fill="#71717A"/>
  <rect x="900" y="335" width="60" height="8" rx="2" fill="#71717A"/>
  <rect x="1100" y="332" width="60" height="14" rx="7" fill="#27272A"/>
</svg>
