<svg xmlns="http://www.w3.org/2000/svg" viewBox="0 0 1400 820" fill="none">
  <rect width="1400" height="820" fill="#111113"/>
  <rect x="0" y="0" width="220" height="820" fill="#0C0C0E"/>
  <rect x="219" y="0" width="1" height="820" fill="#27272A"/>
  <rect x="24" y="28" width="80" height="10" rx="3" fill="#EDEDEF" opacity="0.9"/>
  <rect x="24" y="80" width="120" height="8" rx="2" fill="#6B7FE8" opacity="0.8"/>
  <rect x="24" y="108" width="100" height="8" rx="2" fill="#3F3F46"/>
  <rect x="24" y="132" width="110" height="8" rx="2" fill="#3F3F46"/>
  <rect x="24" y="156" width="90" height="8" rx="2" fill="#3F3F46"/>
  <rect x="24" y="180" width="105" height="8" rx="2" fill="#3F3F46"/>
  <rect x="260" y="36" width="200" height="28" rx="4" fill="#EDEDEF" opacity="0.95"/>
  <rect x="260" y="76" width="340" height="14" rx="3" fill="#71717A"/>
  <rect x="1100" y="36" width="100" height="32" rx="6" fill="#6B7FE8" opacity="0.15" stroke="#6B7FE8" stroke-width="1"/>
  <rect x="1120" y="48" width="60" height="8" rx="2" fill="#6B7FE8"/>
  <rect x="260" y="130" width="1090" height="640" rx="12" fill="#18181B" stroke="#27272A"/>
  <rect x="290" y="160" width="180" height="12" rx="3" fill="#EDEDEF" opacity="0.7"/>
  <rect x="290" y="200" width="320" height="120" rx="8" fill="#111113" stroke="#27272A"/>
  <rect x="310" y="220" width="60" height="8" rx="2" fill="#71717A"/>
  <rect x="310" y="244" width="120" height="20" rx="3" fill="#EDEDEF" opacity="0.9"/>
  <rect x="310" y="280" width="200" height="8" rx="2" fill="#3F3F46"/>
  <rect x="640" y="200" width="320" height="120" rx="8" fill="#111113" stroke="#27272A"/>
  <rect x="660" y="220" width="80" height="8" rx="2" fill="#71717A"/>
  <rect x="660" y="244" width="100" height="20" rx="3" fill="#EDEDEF" opacity="0.9"/>
  <rect x="990" y="200" width="320" height="120" rx="8" fill="#111113" stroke="#27272A"/>
  <rect x="1010" y="220" width="70" height="8" rx="2" fill="#71717A"/>
  <rect x="1010" y="244" width="140" height="20" rx="3" fill="#6B7FE8" opacity="0.9"/>
  <rect x="290" y="360" width="1020" height="380" rx="8" fill="#111113" stroke="#27272A"/>
  <rect x="310" y="380" width="140" height="10" rx="2" fill="#EDEDEF" opacity="0.6"/>
  <rect x="310" y="410" width="980" height="1" fill="#27272A"/>
  <rect x="310" y="430" width="200" height="8" rx="2" fill="#71717A"/>
  <rect x="310" y="454" width="400" height="8" rx="2" fill="#3F3F46"/>
  <rect x="310" y="490" width="180" height="8" rx="2" fill="#71717A"/>
  <rect x="310" y="514" width="350" height="8" rx="2" fill="#3F3F46"/>
  <rect x="310" y="550" width="220" height="8" rx="2" fill="#71717A"/>
  <rect x="310" y="574" width="300" height="8" rx="2" fill="#3F3F46"/>
  <rect x="1200" y="430" width="70" height="24" rx="12" fill="#22C55E" opacity="0.15"/>
  <rect x="1215" y="438" width="40" height="8" rx="2" fill="#22C55E"/>
  <rect x="1200" y="490" width="70" height="24" rx="12" fill="#EAB308" opacity="0.15"/>
  <rect x="1210" y="498" width="50" height="8" rx="2" fill="#EAB308"/>
</svg>
