<svg xmlns="http://www.w3.org/2000/svg" viewBox="0 0 1400 500" fill="none">
  <rect width="1400" height="500" fill="#111113"/>
  <rect x="60" y="60" width="1280" height="380" rx="12" fill="#18181B" stroke="#27272A"/>
  <rect x="90" y="90" width="160" height="12" rx="3" fill="#EDEDEF" opacity="0.7"/>
  <rect x="90" y="130" width="200" height="100" rx="8" fill="#111113" stroke="#6B7FE8" stroke-width="1.5"/>
  <rect x="110" y="155" width="24" height="24" rx="4" fill="#6B7FE8" opacity="0.2"/>
  <text x="118" y="172" font-family="monospace" font-size="14" fill="#6B7FE8">#</text>
  <rect x="145" y="160" width="80" height="8" rx="2" fill="#EDEDEF" opacity="0.8"/>
  <rect x="145" y="178" width="120" height="6" rx="2" fill="#71717A"/>
  <rect x="310" y="130" width="200" height="100" rx="8" fill="#111113" stroke="#27272A"/>
  <rect x="330" y="155" width="24" height="24" rx="4" fill="#27272A"/>
  <text x="336" y="172" font-family="Georgia, serif" font-size="14" fill="#71717A"></text>
  <rect x="365" y="160" width="90" height="8" rx="2" fill="#EDEDEF" opacity="0.7"/>
  <rect x="365" y="178" width="110" height="6" rx="2" fill="#71717A"/>
  <rect x="530" y="130" width="200" height="100" rx="8" fill="#111113" stroke="#27272A"/>
  <rect x="550" y="155" width="24" height="24" rx="4" fill="#27272A"/>
  <text x="556" y="172" font-family="monospace" font-size="14" fill="#71717A">Aa</text>
  <rect x="585" y="160" width="100" height="8" rx="2" fill="#EDEDEF" opacity="0.7"/>
  <rect x="585" y="178" width="90" height="6" rx="2" fill="#71717A"/>
  <rect x="750" y="130" width="200" height="100" rx="8" fill="#111113" stroke="#27272A"/>
  <rect x="770" y="155" width="24" height="24" rx="4" fill="#27272A"/>
  <circle cx="782" cy="167" r="6" stroke="#71717A" stroke-width="2" fill="none"/>
  <rect x="805" y="160" width="110" height="8" rx="2" fill="#EDEDEF" opacity="0.7"/>
  <rect x="805" y="178" width="80" height="6" rx="2" fill="#71717A"/>
  <rect x="90" y="260" width="1220" height="150" rx="8" fill="#111113" stroke="#27272A"/>
  <rect x="110" y="280" width="200" height="8" rx="2" fill="#71717A"/>
  <rect x="110" y="310" width="1180" height="60" rx="6" fill="#18181B" stroke="#27272A"/>
  <rect x="130" y="335" width="500" height="8" rx="2" fill="#3F3F46"/>
</svg>
